{"title":"The Prophecy (1995) [1337x] By {Noir}","uid":4340785,"size":737174370,"categoryP":"video","categoryS":"movies","magnet":"?xt=urn:btih:3c0c0ee1b59edda85104616e0c87306a8b708062&amp;dn=The+Prophecy+%281995%29+%5B1337x%5D+By+%7BNoir%7D&amp;tr=udp%3A%2F%2Ftracker.openbittorrent.com%3A80&amp;tr=udp%3A%2F%2Fopen.demonii.com%3A1337&amp;tr=udp%3A%2F%2Ftracker.coppersurfer.tk%3A6969&amp;tr=udp%3A%2F%2Fexodus.desync.com%3A6969","seeders":7,"leechers":2,"uploader":"INoirI","files":5,"time":1218583192,"description":"Screenshots\n &lt;a href=&quot;\nhttp://i220.photobucket.com/albums/dd94/ItheplagueI/TheProp_0005.jpg&quot; rel=&quot;nofollow&quot; target=&quot;_NEW&quot;&gt;\nhttp://i220.photobucket.com/albums/dd94/ItheplagueI/TheProp_0005.jpg&lt;/a&gt;\n &lt;a href=&quot;\nhttp://i220.photobucket.com/albums/dd94/ItheplagueI/TheProp_0001.jpg&quot; rel=&quot;nofollow&quot; target=&quot;_NEW&quot;&gt;\nhttp://i220.photobucket.com/albums/dd94/ItheplagueI/TheProp_0001.jpg&lt;/a&gt;\n &lt;a href=&quot;\nhttp://i220.photobucket.com/albums/dd94/ItheplagueI/TheProp_0003.jpg&quot; rel=&quot;nofollow&quot; target=&quot;_NEW&quot;&gt;\nhttp://i220.photobucket.com/albums/dd94/ItheplagueI/TheProp_0003.jpg&lt;/a&gt;\n &lt;a href=&quot;\nhttp://i220.photobucket.com/albums/dd94/ItheplagueI/TheProp_0002.jpg&quot; rel=&quot;nofollow&quot; target=&quot;_NEW&quot;&gt;\nhttp://i220.photobucket.com/albums/dd94/ItheplagueI/TheProp_0002.jpg&lt;/a&gt;\n\n\n                        ***********************\n                        * The Prophecy (1995) *\n                        ***********************\n\n________________________\n   General Information  |  \n________________________|\n_______________________________________________________________\nType                    : Movie                                |\nFormat                  : AVI                                  |\nFormat/Info             : Audio Video Interleave               |\nFile size               : 700 MiB                              |\nDuration                : 1h 37mn                              |\nSubtitles               : English                              |\nSource                  : Dvd NTSC                             |\nGenre                   : Horror | Thriller | Fantasy | Mystery|\nIMDB Link               : http://www.imdb.com/title/tt0114194/ |\nRating                  : 6.4/10                               |\n_______________________________________________________________|\nVideo\nFormat                           : AVC\nFormat/Info                      : Advanced Video Codec\nFormat profile                   : &lt;a class=&quot;__cf_email__&quot; href=&quot;/cdn-cgi/l/email-protection&quot; data-cfemail=&quot;eca18d8582aca0d9c2dd&quot;&gt;[email&amp;#160;protected]&lt;/a&gt;&lt;script cf-hash='f9e31' type=&quot;text/javascript&quot;&gt;\n/* &lt;![CDATA[ */!function(){try{var t=&quot;currentScript&quot;in document?document.currentScript:function(){for(var t=document.getElementsByTagName(&quot;script&quot;),e=t.length;e--;)if(t[e].getAttribute(&quot;cf-hash&quot;))return t[e]}();if(t&amp;&amp;t.previousSibling){var e,r,n,i,c=t.previousSibling,a=c.getAttribute(&quot;data-cfemail&quot;);if(a){for(e=&quot;&quot;,r=parseInt(a.substr(0,2),16),n=2;a.length-n;n+=2)i=parseInt(a.substr(n,2),16)^r,e+=String.fromCharCode(i);e=document.createTextNode(e),c.parentNode.replaceChild(e,c)}}}catch(u){}}();/* ]]&gt; */&lt;/script&gt;\nFormat settings, CABAC           : Yes\nFormat settings, ReFrames        : 2 frames\nCodec ID                         : H264\nDuration                         : 1h 37mn\nBit rate                         : 867 Kbps\nWidth                            : 624 pixels\nHeight                           : 256 pixels\nDisplay aspect ratio             : 2.438\nFrame rate                       : 23.976 fps\nResolution                       : 24 bits\nColorimetry                      : 4:2:0\nScan type                        : Progressive\nBits/(Pixel*Frame)               : 0.226\nStream size                      : 604 MiB (86%)            \n_______________________________________________________________\nAudio\nFormat                           : MPEG Audio\nFormat version                   : Version 1\nFormat profile                   : Layer 3\nCodec ID                         : 55\nCodec ID/Hint                    : MP3\nDuration                         : 1h 37mn\nBit rate mode                    : Constant\nBit rate                         : 128 Kbps\nMinimum bit rate                 : 128 Kbps\nChannel(s)                       : 2 channels\nSampling rate                    : 48.0 KHz\nResolution                       : 16 bits\nStream size                      : 89.2 MiB (13%)\nAlignment                        : Aligned on interleaves\nInterleave, duration             : 42 ms (1.00 video frame)\nInterleave, preload duration     : 504 ms\nWriting library                  : LAME3.97 \nEncoding settings                : CBR                         \n_______________________________________________________________\n   Description  |\n________________|\n_______________________________________________________________\nAngels come to Earth to find a human soul that can end the war |\nin heaven. Humans are caught up in this battle and must find a |\nway to stop the angel Gabriel before he takes the soul back    |\nfrom where the angel Simon has hidden it.                      |                              \n_______________________________________________________________|\n____________________\nPlayback Information|\n____________________|\n_______________________________________________________________\nFor best playback with my movie you will need an h.264/x264    |\nDecoder.My personal favorite is CoreAvc Professional.          | &lt;a href=&quot;\nhttp://www.coreavc.com/&quot; rel=&quot;nofollow&quot; target=&quot;_NEW&quot;&gt;\nhttp://www.coreavc.com/&lt;/a&gt; .   You can download it with serial    |\nand application from My site here.                             | &lt;a href=&quot;\nhttp://noirsstuff.googlepages.com/home&quot; rel=&quot;nofollow&quot; target=&quot;_NEW&quot;&gt;\nhttp://noirsstuff.googlepages.com/home&lt;/a&gt;                         |\nYou can also use ffdshow for playback as well,VLC media Player,|\nAnd media player classic.                                      |\n_______________________________________________________________|\n___________________\n  Post Information |\n___________________|\n________________________________\nPosted by............: Noir     |\nPosted on............: 8/11/2008|\n________________________________|","torrent":{"xt":"urn:btih:3c0c0ee1b59edda85104616e0c87306a8b708062","amp;dn":"The+Prophecy+%281995%29+%5B1337x%5D+By+%7BNoir%7D","amp;tr":["udp%3A%2F%2Ftracker.openbittorrent.com%3A80","udp%3A%2F%2Fopen.demonii.com%3A1337","udp%3A%2F%2Ftracker.coppersurfer.tk%3A6969","udp%3A%2F%2Fexodus.desync.com%3A6969"],"infoHash":"3c0c0ee1b59edda85104616e0c87306a8b708062","infoHashBuffer":{"type":"Buffer","data":[60,12,14,225,181,158,221,168,81,4,97,110,12,135,48,106,139,112,128,98]},"announce":[],"urlList":[]}}